<?xml version="1.0" standalone="no"?>
<!DOCTYPE svg PUBLIC "-//W3C//DTD SVG 20010904//EN"
 "http://www.w3.org/TR/2001/REC-SVG-20010904/DTD/svg10.dtd">
<svg version="1.0" xmlns="http://www.w3.org/2000/svg"
 width="3000.000000pt" height="3000.000000pt" viewBox="0 0 3000.000000 3000.000000"
 preserveAspectRatio="xMidYMid meet">

<g transform="translate(0.000000,3000.000000) scale(0.100000,-0.100000)"
fill="#000000" stroke="none">
<path d="M98 29853 c-2 -49 -2 -6785 0 -14970 l2 -14883 14950 0 14950 0 0
14970 0 14970 -14950 0 -14949 0 -3 -87z m16364 -9570 c67 -72 278 -346 278
-361 0 -10 -85 -111 -190 -224 -177 -193 -190 -210 -190 -245 l0 -38 242 -105
c229 -100 242 -107 265 -145 13 -22 118 -219 233 -437 149 -281 208 -402 203
-415 -6 -14 -562 -727 -753 -965 -26 -32 -83 -118 -128 -192 -45 -73 -89 -137
-98 -140 -23 -9 -52 2 -63 22 -5 9 -35 84 -66 167 -45 120 -54 153 -46 171 5
12 143 225 305 474 163 248 296 454 296 458 0 7 -176 115 -195 120 -13 3 34
91 -717 -1333 -362 -687 -665 -1255 -671 -1262 -7 -6 -190 -69 -407 -139 -217
-70 -399 -131 -403 -134 -4 -4 -19 -81 -33 -171 -13 -90 -31 -170 -38 -177
-14 -15 -319 -112 -352 -112 -28 0 -44 19 -44 55 0 35 57 404 70 455 8 30 59
75 377 332 202 164 377 306 389 316 14 11 99 221 243 596 121 318 221 583 221
589 -1 11 -199 178 -220 185 -5 2 -156 -44 -336 -103 l-327 -106 5 -72 c3 -40
25 -316 49 -615 32 -398 41 -547 33 -560 -12 -18 -616 -210 -665 -211 -36 -1
-45 13 -73 105 -16 54 -21 85 -14 97 5 9 74 69 153 133 80 64 145 118 145 120
0 2 -25 51 -55 109 l-56 106 3 477 c3 459 4 479 24 517 87 171 106 203 121
218 10 8 191 73 403 142 302 100 391 132 412 153 14 15 73 87 131 161 l104
134 72 200 c39 110 69 202 67 204 -3 3 -200 -119 -438 -270 l-434 -275 -39
-123 c-33 -101 -45 -126 -66 -138 -26 -14 -28 -13 -86 37 -98 86 -99 87 -74
284 12 92 24 174 27 182 5 13 116 103 269 217 33 25 280 214 548 420 269 206
506 387 528 403 l40 30 87 -21 c64 -15 101 -19 139 -14 29 4 55 10 58 13 3 3
-12 17 -34 31 -22 14 -42 35 -45 45 -4 13 35 103 115 268 66 137 130 268 141
291 11 24 30 46 46 52 26 11 308 37 428 40 54 1 63 -2 86 -26z m-4249 -11308
c283 -49 497 -203 612 -440 71 -147 80 -191 79 -410 0 -178 -2 -196 -28 -280
-98 -320 -326 -528 -661 -602 -55 -12 -162 -16 -502 -20 l-433 -5 0 886 0 886
424 0 c331 0 442 -3 509 -15z m2322 -852 c213 -478 390 -876 393 -885 4 -17
-7 -18 -126 -18 l-129 0 -120 268 -119 267 -434 0 -434 0 -115 -267 -114 -268
-125 0 c-114 0 -124 2 -120 18 3 9 173 407 378 885 l374 867 151 0 151 0 389
-867z m1780 844 c159 -46 263 -125 322 -243 34 -70 37 -83 41 -184 4 -94 1
-120 -17 -178 -38 -117 -126 -208 -242 -249 -27 -10 -49 -20 -49 -23 0 -3 25
-16 55 -29 114 -49 184 -154 204 -304 6 -45 12 -184 14 -309 l3 -228 -118 0
c-83 0 -119 4 -125 13 -4 6 -11 125 -14 262 -8 282 -18 331 -75 394 -42 47
-110 78 -201 91 -37 5 -195 10 -350 10 l-283 0 0 -385 0 -385 -120 0 -120 0 0
886 0 885 508 -3 c444 -3 514 -6 567 -21z m1057 -411 l3 -435 520 435 520 434
153 0 c84 0 151 -3 148 -7 -2 -5 -200 -172 -440 -373 -239 -201 -434 -370
-433 -376 1 -7 211 -233 467 -504 256 -271 467 -497 468 -501 2 -5 -66 -9
-151 -9 l-155 0 -408 438 c-224 240 -411 437 -416 437 -4 0 -68 -47 -143 -105
l-134 -105 -1 -332 0 -333 -125 0 -125 0 0 885 0 885 125 0 125 0 2 -434z"/>
<path d="M16192 20190 c-106 -9 -194 -19 -196 -21 -3 -2 -56 -111 -119 -241
l-115 -237 74 -46 c90 -56 104 -70 104 -99 0 -37 -22 -47 -152 -67 -149 -23
-209 -24 -274 -4 -47 14 -50 14 -79 -7 -22 -16 -1269 -971 -1282 -982 -7 -6
-34 -278 -30 -291 13 -32 27 -12 52 68 14 48 35 92 48 104 12 12 76 55 142 96
66 41 295 185 508 321 213 135 396 246 406 246 19 0 51 -30 51 -48 0 -16 -198
-572 -213 -599 -20 -36 -209 -275 -252 -319 -39 -40 -54 -46 -429 -170 l-388
-129 -54 -107 -54 -108 0 -456 0 -456 60 -107 c33 -59 60 -119 60 -132 0 -19
-33 -50 -155 -148 -85 -69 -155 -129 -155 -135 1 -43 13 -41 282 41 251 77
263 82 261 104 -1 13 -23 290 -49 616 -38 476 -45 595 -35 607 15 17 725 256
762 256 31 0 52 -15 208 -143 76 -63 131 -116 131 -126 0 -33 -470 -1245 -493
-1269 -12 -13 -137 -117 -277 -230 -140 -113 -297 -241 -348 -283 -50 -43
-101 -84 -112 -92 -16 -11 -25 -46 -48 -188 -16 -96 -28 -176 -26 -178 9 -10
194 55 198 69 3 8 15 84 27 169 12 84 28 159 35 165 6 7 133 52 280 100 148
48 332 108 410 133 l140 46 694 1316 c381 724 698 1319 704 1323 26 17 60 3
201 -83 180 -109 188 -116 183 -149 -3 -14 -145 -238 -316 -499 l-311 -474 19
-46 c10 -25 24 -62 32 -81 l14 -34 34 59 c19 32 215 290 437 572 l404 513 -27
52 c-63 126 -368 695 -385 719 -13 19 -82 54 -256 130 -131 57 -246 112 -255
121 -14 14 -18 34 -18 82 0 36 4 75 9 88 5 13 88 109 184 213 148 161 174 192
163 205 -7 8 -59 72 -115 143 -56 70 -103 126 -104 126 -1 -1 -89 -9 -195 -19z"/>
<path d="M11530 8104 l0 -687 278 6 c309 6 380 17 509 79 85 41 186 135 236
219 108 183 133 459 59 666 -52 148 -151 261 -286 327 -133 65 -159 69 -493
73 l-303 5 0 -688z"/>
<path d="M13936 8687 c-27 -72 -101 -256 -164 -407 -62 -151 -116 -283 -119
-292 -5 -17 16 -18 347 -18 278 0 351 3 347 13 -3 6 -66 150 -140 318 -75 169
-154 355 -178 413 -23 58 -42 106 -43 106 0 0 -23 -60 -50 -133z"/>
<path d="M15480 8491 l0 -301 323 0 c339 0 403 7 485 49 44 23 93 72 118 121
15 27 19 57 19 135 0 88 -3 105 -25 145 -31 54 -94 104 -163 127 -44 15 -103
18 -404 21 l-353 3 0 -300z"/>
</g>
</svg>
