<?xml version="1.0" standalone="no"?>
<!DOCTYPE svg PUBLIC "-//W3C//DTD SVG 20010904//EN"
 "http://www.w3.org/TR/2001/REC-SVG-20010904/DTD/svg10.dtd">
<svg version="1.0" xmlns="http://www.w3.org/2000/svg"
 width="80.000000pt" height="80.000000pt" viewBox="0 0 80.000000 80.000000"
 preserveAspectRatio="xMidYMid meet">

<g transform="translate(0.000000,80.000000) scale(0.100000,-0.100000)"
fill="#000000" stroke="none">
<path d="M305 787 c-74 -20 -128 -51 -185 -108 -157 -157 -157 -401 0 -558
115 -115 271 -149 421 -92 104 40 194 132 235 241 26 68 23 200 -5 272 -72
184 -280 293 -466 245z m207 -162 c9 -20 8 -28 -6 -44 -19 -21 -14 -41 9 -41
16 0 65 -67 65 -90 0 -22 -79 -130 -96 -130 -22 0 -16 40 11 76 25 32 32 54
18 54 -8 0 -24 -26 -99 -166 -35 -64 -52 -85 -77 -95 -17 -7 -38 -21 -45 -31
-7 -10 -19 -18 -25 -17 -9 0 -9 2 1 6 6 2 12 11 12 19 0 8 20 23 44 34 28 12
47 27 51 42 11 33 126 228 135 228 4 0 13 -7 20 -15 10 -12 9 -20 -4 -40 -9
-14 -23 -36 -32 -50 -32 -50 2 -23 39 30 l38 55 -22 36 c-12 20 -35 41 -50 46
-34 12 -35 17 -10 49 21 28 17 49 -9 49 -22 0 -44 -35 -36 -56 4 -9 -2 -14
-17 -14 -12 0 -51 -23 -86 -50 -71 -55 -72 -67 -1 -20 25 16 46 25 48 20 2 -5
-7 -28 -19 -50 -19 -33 -32 -43 -67 -53 -49 -13 -58 -32 -48 -104 4 -29 2 -51
-6 -60 -10 -12 -7 -12 14 -2 25 11 26 14 21 69 l-6 59 43 11 c35 9 45 9 57 -2
21 -21 -34 -139 -76 -164 -17 -10 -31 -24 -31 -31 0 -6 -4 -15 -10 -18 -6 -3
-10 2 -10 12 0 10 16 29 36 42 24 16 44 44 60 79 30 67 30 72 2 72 -42 0 -52
-15 -53 -77 0 -53 -2 -58 -27 -67 -32 -11 -43 -4 -33 21 4 10 6 46 5 79 -1 42
3 66 12 75 8 7 12 24 10 39 -3 23 7 34 77 85 45 33 81 63 81 66 0 4 9 18 21
33 26 33 56 34 71 1z"/>
<path d="M330 468 c-55 -34 -63 -54 -18 -43 13 4 32 19 42 36 20 35 20 35 -24
7z"/>
</g>
</svg>
